<svg xmlns="http://www.w3.org/2000/svg" version="1.1" xmlns:xlink="http://www.w3.org/1999/xlink" xmlns:svgjs="http://svgjs.dev/svgjs" width="2000" height="348" viewBox="0 0 2000 348"><g transform="matrix(1,0,0,1,2.1047101800523933,2.8281518947196957)"><svg viewBox="0 0 396 69" data-background-color="#ffffff" preserveAspectRatio="xMidYMid meet" height="348" width="2000" xmlns="http://www.w3.org/2000/svg" xmlns:xlink="http://www.w3.org/1999/xlink"><g id="tight-bounds" transform="matrix(1,0,0,1,0.2400000000000091,0.23140252796491723)"><svg viewBox="0 0 395.52 66.14040677152602" height="66.14040677152602" width="395.52"><g><svg viewBox="0 0 507.65834106961535 84.89262029556647" height="66.14040677152602" width="395.52"><g transform="matrix(1,0,0,1,112.13834106961538,26.23305187895847)"><svg viewBox="0 0 395.52 32.42651653764953" height="32.42651653764953" width="395.52"><g id="textblocktransform"><svg viewBox="0 0 395.52 32.42651653764953" height="32.42651653764953" width="395.52" id="textblock"><g><svg viewBox="0 0 395.52 32.42651653764953" height="32.42651653764953" width="395.52"><g transform="matrix(1,0,0,1,0,0)"><svg width="395.52" viewBox="2.1500000953674316 -34.599998474121094 426.27001953125 34.94999694824219" height="32.42651653764953" data-palette-color="#ff0000"><path d="M17.9-26.1L17.9-26.1Q15.75-26.1 14.73-24.85 13.7-23.6 13.7-20.4L13.7-20.4 13.7-14.5 22-14.5 22-20.5Q22-22.6 21.5-23.88 21-25.15 20.13-25.63 19.25-26.1 17.9-26.1ZM22-4.95L22-7.6 13.7-7.6 13.7-4.95Q13.7-2.4 12.35-1.2 11 0 7.7 0L7.7 0Q6.3 0 5.4-0.4 4.5-0.8 3.83-1.75 3.15-2.7 2.83-4.53 2.5-6.35 2.33-8.93 2.15-11.5 2.15-15.45L2.15-15.45Q2.15-18.9 2.88-21.78 3.6-24.65 4.83-26.65 6.05-28.65 7.6-30.18 9.15-31.7 10.98-32.55 12.8-33.4 14.53-33.83 16.25-34.25 18-34.25L18-34.25Q20.1-34.25 22.15-33.68 24.2-33.1 26.3-31.7 28.4-30.3 29.98-28.23 31.55-26.15 32.55-22.85 33.55-19.55 33.55-15.45L33.55-15.45Q33.55-8.85 33.08-5.68 32.6-2.5 31.48-1.25 30.35 0 28 0L28 0Q24.7 0 23.35-1.2 22-2.4 22-4.95L22-4.95ZM50.6-28.7L50.6-7.5Q50.6-3.6 49.15-1.8 47.7 0 44.75 0L44.75 0Q41.85 0 40.47-1.55 39.1-3.1 39.1-7.1L39.1-7.1 39.1-28.25Q39.1-34.25 44.75-34.25L44.75-34.25Q47.65-34.25 49.12-33.15 50.6-32.05 50.6-28.7L50.6-28.7ZM84.39-34.6L84.39-34.6Q90.34-34.6 94.54-32.15 98.74-29.7 98.74-26.95L98.74-26.95Q98.74-26.2 98.42-25.68 98.09-25.15 97.62-24.93 97.14-24.7 96.59-24.7L96.59-24.7Q95.69-24.7 93.89-25.63 92.09-26.55 89.89-27.48 87.69-28.4 85.84-28.4L85.84-28.4Q82.89-28.4 82.89-26L82.89-26Q82.89-25.25 83.37-24.58 83.84-23.9 84.89-23.18 85.94-22.45 86.94-21.9 87.94-21.35 89.69-20.43 91.44-19.5 92.64-18.8L92.64-18.8Q96.49-16.6 98.04-14.6 99.59-12.6 99.59-10L99.59-10Q99.59 0.35 85.64 0.35L85.64 0.35Q82.89 0.35 80.32-0.2 77.74-0.75 75.82-1.65 73.89-2.55 72.42-3.65 70.94-4.75 70.19-5.9 69.44-7.05 69.44-8.05L69.44-8.05Q69.44-9.15 70.17-9.93 70.89-10.7 72.29-10.7L72.29-10.7Q73.34-10.7 77.34-9.38 81.34-8.05 83.79-8.05L83.79-8.05Q86.04-8.05 86.04-9.6L86.04-9.6Q86.04-10.05 85.87-10.43 85.69-10.8 85.27-11.18 84.84-11.55 84.32-11.88 83.79-12.2 82.87-12.7 81.94-13.2 81.02-13.7 80.09-14.2 78.59-15 77.09-15.8 75.69-16.6L75.69-16.6Q73.84-17.65 72.52-19.2 71.19-20.75 70.59-22.28 69.99-23.8 69.99-25.1L69.99-25.1Q69.99-29.3 73.74-31.95 77.49-34.6 84.39-34.6ZM135.69-28.25L135.69-28.25 135.69-13.35Q135.69-6.05 132.17-2.88 128.64 0.3 120.29 0.3L120.29 0.3Q112.34 0.3 108.62-3.1 104.89-6.5 104.89-13.35L104.89-13.35 104.89-28.25Q104.89-30.9 106.47-32.58 108.04-34.25 110.44-34.25L110.44-34.25Q113.39-34.25 114.92-33.15 116.44-32.05 116.44-28.7L116.44-28.7 116.44-12.4Q116.49-10.8 116.97-9.85 117.44-8.9 118.24-8.53 119.04-8.15 120.29-8.15 121.54-8.15 122.34-8.45 123.14-8.75 123.52-9.4 123.89-10.05 124.02-10.7 124.14-11.35 124.14-12.4L124.14-12.4 124.14-28.75Q124.14-30.45 124.57-31.6 124.99-32.75 125.87-33.3 126.74-33.85 127.67-34.05 128.59-34.25 129.89-34.25L129.89-34.25Q132.79-34.25 134.24-32.85 135.69-31.45 135.69-28.25ZM171.69-5.2L171.69-18.3 165.44-5.5Q164.64-3.9 163.74-3.23 162.84-2.55 161.59-2.55L161.59-2.55Q159.99-2.55 158.89-3.68 157.79-4.8 156.04-7.75L156.04-7.75 150.24-18.3 150.24-4.15Q150.24-2 149.26-1 148.29 0 146.34 0L146.34 0Q144.14 0 143.14-0.98 142.14-1.95 142.14-4.8L142.14-4.8 142.14-26.6Q142.14-30.45 143.89-32.4 145.64-34.35 149.79-34.35L149.79-34.35Q151.34-34.35 152.49-33.83 153.64-33.3 154.21-32.63 154.79-31.95 155.34-30.95L155.34-30.95 162.04-16.3 169.14-30.7Q170.99-34.3 175.79-34.3L175.79-34.3Q178.04-34.3 179.64-33.52 181.24-32.75 182.16-31.03 183.09-29.3 183.09-26.7L183.09-26.7 183.09-4.95Q183.04 0 176.84 0L176.84 0Q174.59 0 173.16-1.23 171.74-2.45 171.69-5.2L171.69-5.2ZM219.14-5.2L219.14-18.3 212.89-5.5Q212.09-3.9 211.19-3.23 210.29-2.55 209.04-2.55L209.04-2.55Q207.44-2.55 206.34-3.68 205.24-4.8 203.49-7.75L203.49-7.75 197.69-18.3 197.69-4.15Q197.69-2 196.71-1 195.74 0 193.79 0L193.79 0Q191.59 0 190.59-0.98 189.59-1.95 189.59-4.8L189.59-4.8 189.59-26.6Q189.59-30.45 191.34-32.4 193.09-34.35 197.24-34.35L197.24-34.35Q198.79-34.35 199.94-33.83 201.09-33.3 201.66-32.63 202.24-31.95 202.79-30.95L202.79-30.95 209.49-16.3 216.59-30.7Q218.44-34.3 223.24-34.3L223.24-34.3Q225.49-34.3 227.09-33.52 228.69-32.75 229.61-31.03 230.54-29.3 230.54-26.7L230.54-26.7 230.54-4.95Q230.49 0 224.29 0L224.29 0Q222.04 0 220.61-1.23 219.19-2.45 219.14-5.2L219.14-5.2ZM251.63-26.1L251.63-26.1Q249.48-26.1 248.46-24.85 247.43-23.6 247.43-20.4L247.43-20.4 247.43-14.5 255.73-14.5 255.73-20.5Q255.73-22.6 255.23-23.88 254.73-25.15 253.86-25.63 252.98-26.1 251.63-26.1ZM255.73-4.95L255.73-7.6 247.43-7.6 247.43-4.95Q247.43-2.4 246.08-1.2 244.73 0 241.43 0L241.43 0Q240.03 0 239.13-0.4 238.23-0.8 237.56-1.75 236.88-2.7 236.56-4.53 236.23-6.35 236.06-8.93 235.88-11.5 235.88-15.45L235.88-15.45Q235.88-18.9 236.61-21.78 237.33-24.65 238.56-26.65 239.78-28.65 241.33-30.18 242.88-31.7 244.71-32.55 246.53-33.4 248.26-33.83 249.98-34.25 251.73-34.25L251.73-34.25Q253.83-34.25 255.88-33.68 257.93-33.1 260.03-31.7 262.13-30.3 263.71-28.23 265.28-26.15 266.28-22.85 267.28-19.55 267.28-15.45L267.28-15.45Q267.28-8.85 266.81-5.68 266.33-2.5 265.21-1.25 264.08 0 261.73 0L261.73 0Q258.43 0 257.08-1.2 255.73-2.4 255.73-4.95L255.73-4.95ZM291.53-24.3L291.53-24.3Q291.53-26.7 289.78-27.6 288.03-28.5 283.88-28.5L283.88-28.5 283.88-19.85Q287.78-19.85 289.66-20.83 291.53-21.8 291.53-24.3ZM283.88-12.35L283.88-7.5Q283.88 0 278.03 0L278.03 0Q275.08 0 273.71-1.58 272.33-3.15 272.33-7.15L272.33-7.15 272.33-28.25Q272.33-31.15 273.91-32.68 275.48-34.2 278.03-34.2L278.03-34.2 288.53-34.2Q294.68-34.2 298.48-31.33 302.28-28.45 302.28-23.95L302.28-23.95Q302.28-20.55 300.86-18.63 299.43-16.7 296.28-15.8L296.28-15.8Q298.68-15.65 300.73-13.48 302.78-11.3 302.78-8.05L302.78-8.05Q302.78-4.75 302.16-2.98 301.53-1.2 300.38-0.6 299.23 0 297.13 0L297.13 0Q294.18 0 292.81-1.23 291.43-2.45 291.43-4.95L291.43-4.95Q291.43-8.05 290.83-9.73 290.23-11.4 289.28-11.9 288.33-12.4 286.63-12.4L286.63-12.4 283.88-12.35ZM320.33-28.7L320.33-7.5Q320.33-3.6 318.88-1.8 317.43 0 314.48 0L314.48 0Q311.58 0 310.2-1.55 308.83-3.1 308.83-7.1L308.83-7.1 308.83-28.25Q308.83-34.25 314.48-34.25L314.48-34.25Q317.38-34.25 318.85-33.15 320.33-32.05 320.33-28.7L320.33-28.7ZM339.28-8.1L353.48-8.1Q354.98-8.1 355.98-7.88 356.98-7.65 357.55-7.13 358.13-6.6 358.35-5.9 358.58-5.2 358.58-4.15L358.58-4.15Q358.58-1.6 356.98-0.8 355.38 0 351.43 0L351.43 0 332.68 0Q331.28 0 329.85-0.83 328.43-1.65 327.48-3.13 326.53-4.6 326.53-6.25L326.53-6.25Q326.53-7.75 326.7-8.72 326.88-9.7 327.53-10.75 328.18-11.8 328.7-12.43 329.23-13.05 330.63-14.5L330.63-14.5 343.38-26.1 333.23-26.1Q329.88-26.1 328.38-27.08 326.88-28.05 326.88-30.35L326.88-30.35Q326.88-32.5 328.1-33.38 329.33-34.25 331.73-34.25L331.73-34.25 352.18-34.25Q353.68-34.25 354.83-33.73 355.98-33.2 356.58-32.38 357.18-31.55 357.48-30.75 357.78-29.95 357.78-29.25L357.78-29.25Q357.78-28.35 357.73-27.65 357.68-26.95 357.45-26.33 357.23-25.7 357.13-25.35 357.03-25 356.55-24.4 356.08-23.8 355.88-23.6 355.68-23.4 354.93-22.63 354.18-21.85 353.88-21.55L353.88-21.55 339.28-8.1ZM376.32-20.3L384.92-20.3Q387.57-20.3 388.65-19.45 389.72-18.6 389.72-16.55L389.72-16.55Q389.72-14.85 388.45-14.13 387.17-13.4 384.47-13.4L384.47-13.4 376.37-13.4 376.37-8.1 387.22-8.05Q390.02-8.05 391.25-7.23 392.47-6.4 392.47-4.3L392.47-4.3Q392.47-1.9 391.05-0.95 389.62 0 386.72 0L386.72 0 370.52 0Q367.57 0 366.2-1.58 364.82-3.15 364.82-7.15L364.82-7.15 364.82-28.25Q364.82-34.25 370.52-34.25L370.52-34.25 386.72-34.25Q389.62-34.25 391.05-33.35 392.47-32.45 392.47-30.1L392.47-30.1Q392.47-27.9 391.25-27.03 390.02-26.15 387.22-26.15L387.22-26.15 376.32-26.15 376.32-20.3ZM417.17-24.3L417.17-24.3Q417.17-26.7 415.42-27.6 413.67-28.5 409.52-28.5L409.52-28.5 409.52-19.85Q413.42-19.85 415.3-20.83 417.17-21.8 417.17-24.3ZM409.52-12.35L409.52-7.5Q409.52 0 403.67 0L403.67 0Q400.72 0 399.35-1.58 397.97-3.15 397.97-7.15L397.97-7.15 397.97-28.25Q397.97-31.15 399.55-32.68 401.12-34.2 403.67-34.2L403.67-34.2 414.17-34.2Q420.32-34.2 424.12-31.33 427.92-28.45 427.92-23.95L427.92-23.95Q427.92-20.55 426.5-18.63 425.07-16.7 421.92-15.8L421.92-15.8Q424.32-15.65 426.37-13.48 428.42-11.3 428.42-8.05L428.42-8.05Q428.42-4.75 427.8-2.98 427.17-1.2 426.02-0.6 424.87 0 422.77 0L422.77 0Q419.82 0 418.45-1.23 417.07-2.45 417.07-4.95L417.07-4.95Q417.07-8.05 416.47-9.73 415.87-11.4 414.92-11.9 413.97-12.4 412.27-12.4L412.27-12.4 409.52-12.35Z" opacity="1" transform="matrix(1,0,0,1,0,0)" fill="#ff0000" class="wordmark-text-0" data-fill-palette-color="primary" id="text-0"></path></svg></g></svg></g></svg></g></svg></g><g><svg viewBox="0 0 104.48321875147323 84.89262029556647" height="84.89262029556647" width="104.48321875147323"><g><svg xmlns="http://www.w3.org/2000/svg" data-name="Layer 1" viewBox="0.000008372324373340234 12 127.99999237060547 104" x="0" y="0" width="104.48321875147323" height="84.89262029556647" class="icon-icon-0" data-fill-palette-color="accent" id="icon-0"><path d="M4 116H124a4 4 0 0 0 2.546-7.085l-12.12-10a3.992 3.992 0 0 0-0.485-0.334A3.963 3.963 0 0 0 114 98V92.132a30.757 30.757 0 0 1-4 1.531V98H18V48h4V92a2 2 0 0 0 4 0V32h76v1.025a31.03 31.03 0 0 1 4 0.384V18a6.007 6.007 0 0 0-6-6H28a6.007 6.007 0 0 0-6 6V44H18a4 4 0 0 0-4 4V98a3.963 3.963 0 0 0 0.059 0.581 3.992 3.992 0 0 0-0.485 0.334l-12.12 10A4 4 0 0 0 4 116ZM26 18a2.002 2.002 0 0 1 2-2h72a2.002 2.002 0 0 1 2 2V28H26Zm-9.88 84h95.76L124 112H4Z" fill="#ee3e38" data-fill-palette-color="accent"></path><path d="M96 20H92a2 2 0 0 0 0 4h4a2 2 0 0 0 0-4Z" fill="#ee3e38" data-fill-palette-color="accent"></path><path d="M84 20H80a2 2 0 0 0 0 4h4a2 2 0 0 0 0-4Z" fill="#ee3e38" data-fill-palette-color="accent"></path><path d="M32 40H44a2 2 0 0 0 0-4H32a2 2 0 0 0 0 4Z" fill="#ee3e38" data-fill-palette-color="accent"></path><path d="M32 48H68a2 2 0 0 0 0-4H32a2 2 0 0 0 0 4Z" fill="#ee3e38" data-fill-palette-color="accent"></path><path d="M32 56H48a2 2 0 0 0 0-4H32a2 2 0 0 0 0 4Z" fill="#ee3e38" data-fill-palette-color="accent"></path><path d="M32 64H68a2 2 0 0 0 0-4H32a2 2 0 0 0 0 4Z" fill="#ee3e38" data-fill-palette-color="accent"></path><path d="M32 80H58a2 2 0 0 0 0-4H32a2 2 0 0 0 0 4Z" fill="#ee3e38" data-fill-palette-color="accent"></path><path d="M32 88H78a2 2 0 0 0 0-4H32a2 2 0 0 0 0 4Z" fill="#ee3e38" data-fill-palette-color="accent"></path><path d="M32 68a2 2 0 0 0 0 4H71.052a30.767 30.767 0 0 1-0.785-4Z" fill="#ee3e38" data-fill-palette-color="accent"></path><path d="M101 37a27 27 0 1 0 27 27A27.031 27.031 0 0 0 101 37Zm0 50a23 23 0 1 1 23-23A23 23 0 0 1 101 87Z" fill="#ee3e38" data-fill-palette-color="accent"></path><path d="M111.414 58.586a2 2 0 0 0-2.828 2.828L111.171 64l-2.585 2.586a2 2 0 1 0 2.828 2.828l4-4a1.999 1.999 0 0 0 0-2.828Z" fill="#ee3e38" data-fill-palette-color="accent"></path><path d="M93.414 58.586a1.999 1.999 0 0 0-2.828 0l-4 4a1.999 1.999 0 0 0 0 2.828l4 4a2 2 0 0 0 2.828-2.828L90.829 64l2.585-2.586A1.999 1.999 0 0 0 93.414 58.586Z" fill="#ee3e38" data-fill-palette-color="accent"></path><path d="M103.632 56.103a2.004 2.004 0 0 0-2.529 1.265l-4 12a2 2 0 1 0 3.794 1.264l4-12A2 2 0 0 0 103.632 56.103Z" fill="#ee3e38" data-fill-palette-color="accent"></path></svg></g></svg></g></svg></g><defs></defs></svg><rect width="395.52" height="66.14040677152602" fill="none" stroke="none" visibility="hidden"></rect></g></svg></g></svg>